<svg width="24" height="24" viewBox="0 0 24 24" fill="none" xmlns="http://www.w3.org/2000/svg">
<path d="M12 24C18.6274 24 24 18.6274 24 12C24 5.37258 18.6274 0 12 0C5.37258 0 0 5.37258 0 12C0 18.6274 5.37258 24 12 24Z" fill="#3C5A99"/>
<path d="M12.9359 18.0001V12.5345H14.7781L15.0547 10.3946H12.9359V9.03291C12.9359 8.41416 13.107 7.99463 13.993 7.99463H15.1156V6.08682C14.9211 6.06104 14.2508 6.00244 13.4703 6.00244C11.8414 6.00244 10.7258 6.99619 10.7258 8.82197V10.397H8.89062V12.5368H10.7258V18.0001H12.9359Z" fill="white"/>
</svg>
