<svg width="91" height="39" viewBox="0 0 91 39" fill="none" xmlns="http://www.w3.org/2000/svg">
<g filter="url(#filter0_f_764_3974)">
<path d="M34.485 37C37.6854 37.0132 39.4564 31.3433 42.4186 18.5051C42.563 17.8792 42.0873 17.2817 41.445 17.2817H24.4356C23.9776 17.2817 23.5781 17.5928 23.466 18.0369L22.104 23.4313C21.9445 24.063 22.422 24.6761 23.0736 24.6761H29.5439C30.1708 24.6761 30.6431 25.2462 30.5265 25.8621L30.1584 27.8058C30.069 28.2779 29.6564 28.6197 29.1759 28.6197H14.0786C13.4376 28.6197 12.9622 28.0253 13.103 27.4L16.7599 11.1606C16.8626 10.7044 17.2678 10.3803 17.7355 10.3803H77.2386C77.8971 10.3803 78.3759 11.0057 78.2039 11.6414L76.878 16.5428C76.76 16.9789 76.3644 17.2817 75.9127 17.2817H50.2043C49.7441 17.2817 49.3433 17.5958 49.2333 18.0427L44.8715 35.761C44.7164 36.3912 45.1935 37 45.8425 37H52.3541C52.822 37 53.2273 36.6755 53.3298 36.219L55.9663 24.4712C56.0688 24.0146 56.4742 23.6901 56.9421 23.6901H81.4261C81.7292 23.6901 82.0173 23.5529 82.2029 23.3132C85.8041 18.6624 87.2159 13.6479 88.8262 3.14864C88.9189 2.54459 88.4507 2 87.8396 2H11.867C11.5343 2 11.2227 2.16462 11.041 2.4433C8.06969 6.99813 3.24208 16.6291 2.06066 35.9395C2.02566 36.5116 2.4815 37 3.05468 37H34.485Z" fill="#444D56"/>
<path d="M34.485 37C37.6854 37.0132 39.4564 31.3433 42.4186 18.5051C42.563 17.8792 42.0873 17.2817 41.445 17.2817H24.4356C23.9776 17.2817 23.5781 17.5928 23.466 18.0369L22.104 23.4313C21.9445 24.063 22.422 24.6761 23.0736 24.6761H29.5439C30.1708 24.6761 30.6431 25.2462 30.5265 25.8621L30.1584 27.8058C30.069 28.2779 29.6564 28.6197 29.1759 28.6197H14.0786C13.4376 28.6197 12.9622 28.0253 13.103 27.4L16.7599 11.1606C16.8626 10.7044 17.2678 10.3803 17.7355 10.3803H77.2386C77.8971 10.3803 78.3759 11.0057 78.2039 11.6414L76.878 16.5428C76.76 16.9789 76.3644 17.2817 75.9127 17.2817H50.2043C49.7441 17.2817 49.3433 17.5958 49.2333 18.0427L44.8715 35.761C44.7164 36.3912 45.1935 37 45.8425 37H52.3541C52.822 37 53.2273 36.6755 53.3298 36.219L55.9663 24.4712C56.0688 24.0146 56.4742 23.6901 56.9421 23.6901H81.4261C81.7292 23.6901 82.0173 23.5529 82.2029 23.3132C85.8041 18.6624 87.2159 13.6479 88.8262 3.14864C88.9189 2.54459 88.4507 2 87.8396 2H11.867C11.5343 2 11.2227 2.16462 11.041 2.4433C8.06969 6.99813 3.24208 16.6291 2.06066 35.9395C2.02566 36.5116 2.4815 37 3.05468 37H34.485Z" stroke="#272F37" stroke-opacity="0.65"/>
</g>
<path d="M64.2192 33.5H59.193C58.7762 33.5 58.403 33.7586 58.2567 34.1489L57.5067 36.1489C57.2615 36.8026 57.7448 37.5 58.443 37.5H63.7192C64.1781 37.5 64.5781 37.1877 64.6894 36.7425L65.1894 34.7425C65.3472 34.1114 64.8698 33.5 64.2192 33.5Z" fill="#444D56"/>
<g filter="url(#filter1_f_764_3974)">
<path d="M64.2192 33.5H59.193C58.7762 33.5 58.403 33.7586 58.2567 34.1489L57.5067 36.1489C57.2615 36.8026 57.7448 37.5 58.443 37.5H63.7192C64.1781 37.5 64.5781 37.1877 64.6894 36.7425L65.1894 34.7425C65.3472 34.1114 64.8698 33.5 64.2192 33.5Z" fill="#444D56"/>
<path d="M64.2192 33.5H59.193C58.7762 33.5 58.403 33.7586 58.2567 34.1489L57.5067 36.1489C57.2615 36.8026 57.7448 37.5 58.443 37.5H63.7192C64.1781 37.5 64.5781 37.1877 64.6894 36.7425L65.1894 34.7425C65.3472 34.1114 64.8698 33.5 64.2192 33.5Z" stroke="#272F37" stroke-opacity="0.65"/>
</g>
<path d="M78.2192 33.5H73.193C72.7762 33.5 72.403 33.7586 72.2567 34.1489L71.5067 36.1489C71.2615 36.8026 71.7448 37.5 72.443 37.5H77.7192C78.1781 37.5 78.5781 37.1877 78.6894 36.7425L79.1894 34.7425C79.3472 34.1114 78.8698 33.5 78.2192 33.5Z" fill="#444D56"/>
<g filter="url(#filter2_f_764_3974)">
<path d="M78.2192 33.5H73.193C72.7762 33.5 72.403 33.7586 72.2567 34.1489L71.5067 36.1489C71.2615 36.8026 71.7448 37.5 72.443 37.5H77.7192C78.1781 37.5 78.5781 37.1877 78.6894 36.7425L79.1894 34.7425C79.3472 34.1114 78.8698 33.5 78.2192 33.5Z" fill="#444D56"/>
<path d="M78.2192 33.5H73.193C72.7762 33.5 72.403 33.7586 72.2567 34.1489L71.5067 36.1489C71.2615 36.8026 71.7448 37.5 72.443 37.5H77.7192C78.1781 37.5 78.5781 37.1877 78.6894 36.7425L79.1894 34.7425C79.3472 34.1114 78.8698 33.5 78.2192 33.5Z" stroke="#272F37" stroke-opacity="0.65"/>
</g>
<defs>
<filter id="filter0_f_764_3974" x="0.5625" y="0.5" width="89.7734" height="38" filterUnits="userSpaceOnUse" color-interpolation-filters="sRGB">
<feFlood flood-opacity="0" result="BackgroundImageFix"/>
<feBlend mode="normal" in="SourceGraphic" in2="BackgroundImageFix" result="shape"/>
<feGaussianBlur stdDeviation="0.5" result="effect1_foregroundBlur_764_3974"/>
</filter>
<filter id="filter1_f_764_3974" x="55.9453" y="32" width="10.7734" height="7" filterUnits="userSpaceOnUse" color-interpolation-filters="sRGB">
<feFlood flood-opacity="0" result="BackgroundImageFix"/>
<feBlend mode="normal" in="SourceGraphic" in2="BackgroundImageFix" result="shape"/>
<feGaussianBlur stdDeviation="0.5" result="effect1_foregroundBlur_764_3974"/>
</filter>
<filter id="filter2_f_764_3974" x="69.9453" y="32" width="10.7734" height="7" filterUnits="userSpaceOnUse" color-interpolation-filters="sRGB">
<feFlood flood-opacity="0" result="BackgroundImageFix"/>
<feBlend mode="normal" in="SourceGraphic" in2="BackgroundImageFix" result="shape"/>
<feGaussianBlur stdDeviation="0.5" result="effect1_foregroundBlur_764_3974"/>
</filter>
</defs>
</svg>
